<svg width="512" height="512" viewBox="0 0 512 512" fill="none" xmlns="http://www.w3.org/2000/svg">
<rect width="512" height="512" rx="24" fill="url(#paint0_linear_41_185)"/>
<path d="M263.598 353.373L231.664 335.375L128.369 275.205V315.61L231.664 374.871L263.598 391.959M263.598 353.373V391.959M263.598 353.373L392.978 277.667V315.61L263.598 391.959M263.598 430.016L410.039 339.865V384.099L263.598 476M263.598 430.016V476M263.598 430.016L128.369 351.41V398.365L263.598 476M263.598 476L459 353.373V139.475M263.598 476L101.661 382.801M263.598 285.974L222.139 264.114V299.98L263.598 324.561M263.598 285.974V324.561M263.598 285.974L307.916 264.114V299.98L263.598 324.561M459 139.475L263.533 34L50 139.858V207.103V232.046V280.238V353.373L101.661 382.801M459 139.475C328.285 214.821 269.303 250.643 184.124 218.522M184.124 218.522C156.09 206.085 134.085 194.736 104.13 175.879M184.124 218.522C152.811 204.772 132.11 193.705 104.13 175.879M184.124 218.522C158.963 209.034 132.767 194.955 104.12 176.737M104.13 175.879L104.12 176.737M104.12 176.737L101.661 382.801M366.373 232.315L459 177.918L459 209.568L366.373 264.114L366.373 232.315ZM195.756 254.578L128.369 214.821V246.532L195.756 286.618V254.578Z" stroke="white" stroke-width="16" stroke-linejoin="round"/>
<path d="M262.625 78.2813L127.9 148.158C127.9 148.158 244.499 227.191 312.311 182.796C380.123 138.401 315.726 107.684 304.749 101.812C299.383 98.9407 262.625 78.2813 262.625 78.2813Z" stroke="white" stroke-width="16" stroke-linejoin="round"/>
<defs>
<linearGradient id="paint0_linear_41_185" x1="256" y1="0" x2="256" y2="701.25" gradientUnits="userSpaceOnUse">
<stop stop-color="#0A4491"/>
<stop offset="1" stop-color="#2463F2"/>
</linearGradient>
</defs>
</svg>
