<svg width="512" height="512" viewBox="0 0 512 512" fill="none" xmlns="http://www.w3.org/2000/svg">
<path d="M262.598 353.373L230.664 335.375L127.369 275.205V315.61L230.664 374.871L262.598 391.959M262.598 353.373V391.959M262.598 353.373L391.978 277.667V315.61L262.598 391.959M262.598 430.016L409.039 339.865V384.099L262.598 476M262.598 430.016V476M262.598 430.016L127.369 351.41V398.365L262.598 476M262.598 476L458 353.373V139.475M262.598 476L100.661 382.801M262.598 285.974L221.139 264.114V299.98L262.598 324.561M262.598 285.974V324.561M262.598 285.974L306.916 264.114V299.98L262.598 324.561M458 139.475L262.533 34L49 139.858V207.103V232.046V280.238V353.373L100.661 382.801M458 139.475C327.285 214.821 268.303 250.643 183.124 218.522M183.124 218.522C155.09 206.085 133.085 194.736 103.13 175.879M183.124 218.522C151.811 204.772 131.11 193.705 103.13 175.879M183.124 218.522C157.963 209.034 131.767 194.955 103.12 176.737M103.13 175.879L103.12 176.737M103.12 176.737L100.661 382.801M365.373 232.315L458 177.918L458 209.568L365.373 264.114L365.373 232.315ZM194.756 254.578L127.369 214.821V246.532L194.756 286.618V254.578Z" stroke="url(#paint0_linear_41_270)" stroke-width="16" stroke-linejoin="round"/>
<path d="M261.625 78.2813L126.9 148.158C126.9 148.158 243.499 227.191 311.311 182.796C379.123 138.401 314.726 107.684 303.749 101.812C298.383 98.9407 261.625 78.2813 261.625 78.2813Z" stroke="url(#paint1_linear_41_270)" stroke-width="16" stroke-linejoin="round"/>
<defs>
<linearGradient id="paint0_linear_41_270" x1="253.5" y1="34" x2="253.5" y2="476" gradientUnits="userSpaceOnUse">
<stop stop-color="#2463F2"/>
<stop offset="1" stop-color="#15398C"/>
</linearGradient>
<linearGradient id="paint1_linear_41_270" x1="202.329" y1="95.4999" x2="279.053" y2="205.4" gradientUnits="userSpaceOnUse">
<stop stop-color="#2463F2"/>
<stop offset="1" stop-color="#15398C"/>
</linearGradient>
</defs>
</svg>
