<svg width="1728" height="239" viewBox="0 0 1728 239" fill="none" xmlns="http://www.w3.org/2000/svg">
<path d="M0 187.274V15.0281H59.1679C70.416 15.0281 80.2773 17.2631 88.7519 21.733C97.2264 26.0488 103.775 32.2142 108.397 40.2292C113.174 48.09 115.562 57.261 115.562 67.7422C115.562 78.2234 113.174 87.3944 108.397 95.2552C103.775 103.116 97.2264 109.282 88.7519 113.751C80.4314 118.067 70.5701 120.225 59.1679 120.225H18.49V187.274H0ZM18.49 102.885H60.0924C67.4884 102.885 73.9599 101.498 79.5069 98.7233C85.0539 95.7947 89.3682 91.7102 92.4499 86.4696C95.5315 81.0749 97.0724 74.7553 97.0724 67.511C97.0724 60.2667 95.5315 54.0242 92.4499 48.7836C89.3682 43.5431 85.0539 39.5356 79.5069 36.7611C73.9599 33.8326 67.4884 32.3683 60.0924 32.3683H18.49V102.885Z" fill="url(#paint0_linear_200_2)"/>
<path d="M139.04 187.274V63.3494H156.374V83.6952L154.063 80.6895C156.99 74.8324 161.382 70.2084 167.237 66.8174C173.246 63.4264 180.488 61.7309 188.962 61.7309H196.821V79.0711H185.958C177.021 79.0711 169.856 81.8455 164.463 87.3944C159.07 92.9432 156.374 100.804 156.374 110.977V187.274H139.04Z" fill="url(#paint1_linear_200_2)"/>
<path d="M268.213 190.048C256.503 190.048 245.871 187.274 236.318 181.725C226.765 176.022 219.137 168.315 213.436 158.605C207.889 148.74 205.116 137.565 205.116 125.08C205.116 112.75 207.889 101.729 213.436 92.0184C218.983 82.3079 226.456 74.6783 235.855 69.1294C245.409 63.4264 256.194 60.5749 268.213 60.5749C280.231 60.5749 290.94 63.3494 300.339 68.8982C309.892 74.4471 317.365 82.0767 322.758 91.7872C328.305 101.498 331.079 112.595 331.079 125.08C331.079 137.719 328.228 148.971 322.527 158.836C316.826 168.546 309.199 176.176 299.646 181.725C290.247 187.274 279.769 190.048 268.213 190.048ZM268.213 172.708C276.533 172.708 284.006 170.627 290.632 166.465C297.412 162.304 302.728 156.601 306.58 149.357C310.586 142.112 312.589 134.02 312.589 125.08C312.589 116.14 310.586 108.125 306.58 101.035C302.728 93.9451 297.412 88.3192 290.632 84.1576C284.006 79.9959 276.533 77.9151 268.213 77.9151C259.892 77.9151 252.342 79.9959 245.563 84.1576C238.937 88.3192 233.621 93.9451 229.615 101.035C225.609 108.125 223.606 116.14 223.606 125.08C223.606 134.02 225.609 142.112 229.615 149.357C233.621 156.601 238.937 162.304 245.563 166.465C252.342 170.627 259.892 172.708 268.213 172.708Z" fill="url(#paint2_linear_200_2)"/>
<path d="M331.604 238.138C330.526 238.138 329.062 238.061 327.213 237.907C325.21 237.753 323.592 237.522 322.359 237.213V221.26C325.595 221.723 328.831 221.954 332.067 221.954C338.384 221.954 343.7 220.027 348.014 216.174C352.483 212.321 354.717 206.541 354.717 198.834V63.3494H372.051V198.834C372.051 207.311 370.202 214.478 366.504 220.336C362.806 226.193 357.875 230.586 351.712 233.514C345.703 236.597 339 238.138 331.604 238.138ZM354.717 40.4604V15.0281H372.051V40.4604H354.717Z" fill="url(#paint3_linear_200_2)"/>
<path d="M456.993 190.048C445.437 190.048 434.959 187.274 425.56 181.725C416.315 176.022 408.996 168.238 403.603 158.373C398.21 148.509 395.514 137.334 395.514 124.849C395.514 112.364 398.133 101.344 403.372 91.7872C408.611 82.0767 415.699 74.4471 424.636 68.8982C433.727 63.3494 443.896 60.5749 455.144 60.5749C464.081 60.5749 472.016 62.2704 478.95 65.6614C486.038 68.8982 492.047 73.3681 496.978 79.0711C501.908 84.62 505.683 90.9395 508.303 98.0297C510.922 104.966 512.232 112.133 512.232 119.531C512.232 121.073 512.155 122.845 512.001 124.849C511.847 126.699 511.616 128.625 511.307 130.629H406.608V114.445H501.369L493.049 121.381C494.435 112.904 493.434 105.351 490.044 98.7233C486.808 91.9414 482.109 86.6237 475.945 82.7703C469.782 78.7628 462.848 76.7591 455.144 76.7591C447.44 76.7591 440.275 78.7628 433.649 82.7703C427.178 86.7778 422.093 92.4038 418.395 99.6481C414.697 106.738 413.233 115.216 414.004 125.08C413.233 134.945 414.774 143.576 418.626 150.975C422.633 158.219 428.025 163.845 434.805 167.853C441.739 171.86 449.135 173.864 456.993 173.864C466.084 173.864 473.711 171.706 479.874 167.39C486.038 163.075 491.045 157.68 494.897 151.206L509.689 159.067C507.224 164.616 503.449 169.779 498.364 174.558C493.28 179.182 487.193 182.958 480.106 185.886C473.172 188.661 465.468 190.048 456.993 190.048Z" fill="url(#paint4_linear_200_2)"/>
<path d="M583.241 188.661C572.147 188.661 563.596 185.424 557.586 178.95C551.577 172.477 548.573 163.229 548.573 151.206V80.6895H525.691V63.3494H531.469C536.708 63.3494 540.868 61.6539 543.95 58.2629C547.032 54.7178 548.573 50.325 548.573 45.0844V34.6803H565.907V63.3494H593.18V80.6895H565.907V151.206C565.907 155.368 566.523 159.067 567.756 162.304C568.989 165.387 571.069 167.853 573.996 169.702C577.078 171.552 581.161 172.477 586.246 172.477C587.479 172.477 588.942 172.4 590.637 172.246C592.332 172.091 593.796 171.937 595.029 171.783V187.274C593.18 187.736 591.099 188.044 588.788 188.198C586.477 188.507 584.628 188.661 583.241 188.661Z" fill="url(#paint5_linear_200_2)"/>
<path d="M672.031 190.048C660.321 190.048 649.689 187.274 640.136 181.725C630.583 176.022 622.956 168.315 617.255 158.605C611.708 148.74 608.934 137.565 608.934 125.08C608.934 112.75 611.708 101.729 617.255 92.0184C622.802 82.3079 630.275 74.6783 639.674 69.1294C649.227 63.4264 660.013 60.5749 672.031 60.5749C684.05 60.5749 694.758 63.3494 704.157 68.8982C713.711 74.4471 721.184 82.0767 726.576 91.7872C732.123 101.498 734.897 112.595 734.897 125.08C734.897 137.719 732.046 148.971 726.345 158.836C720.644 168.546 713.017 176.176 703.464 181.725C694.065 187.274 683.587 190.048 672.031 190.048ZM672.031 172.708C680.352 172.708 687.825 170.627 694.45 166.465C701.23 162.304 706.546 156.601 710.398 149.357C714.404 142.112 716.407 134.02 716.407 125.08C716.407 116.14 714.404 108.125 710.398 101.035C706.546 93.9451 701.23 88.3192 694.45 84.1576C687.825 79.9959 680.352 77.9151 672.031 77.9151C663.711 77.9151 656.16 79.9959 649.381 84.1576C642.755 88.3192 637.439 93.9451 633.433 101.035C629.427 108.125 627.424 116.14 627.424 125.08C627.424 134.02 629.427 142.112 633.433 149.357C637.439 156.601 642.755 162.304 649.381 166.465C656.16 170.627 663.711 172.708 672.031 172.708Z" fill="url(#paint6_linear_200_2)"/>
<path d="M837.811 190.048C825.484 190.048 814.005 187.813 803.373 183.343C792.895 178.873 783.727 172.631 775.869 164.616C768.011 156.601 761.848 147.199 757.379 136.409C753.065 125.62 750.908 113.828 750.908 101.035C750.908 88.2421 753.065 76.4508 757.379 65.6614C761.694 54.7178 767.78 45.3156 775.638 37.4547C783.496 29.4397 792.664 23.2743 803.142 18.9586C813.774 14.4887 825.33 12.2537 837.811 12.2537C850.291 12.2537 861.462 14.3345 871.324 18.4962C881.339 22.6578 889.814 28.2067 896.747 35.1427C903.681 42.0788 908.612 49.7855 911.539 58.2629L879.875 73.5223C876.948 65.199 871.786 58.34 864.39 52.9453C857.148 47.3964 848.288 44.622 837.811 44.622C827.641 44.622 818.704 47.0111 811 51.7893C803.296 56.5674 797.287 63.1952 792.972 71.6726C788.812 79.9959 786.732 89.7835 786.732 101.035C786.732 112.287 788.812 122.152 792.972 130.629C797.287 139.107 803.296 145.734 811 150.513C818.704 155.291 827.641 157.68 837.811 157.68C848.288 157.68 857.148 154.982 864.39 149.588C871.786 144.039 876.948 137.103 879.875 128.78L911.539 144.039C908.612 152.516 903.681 160.223 896.747 167.159C889.814 174.095 881.339 179.644 871.324 183.806C861.462 187.967 850.291 190.048 837.811 190.048Z" fill="url(#paint7_linear_200_2)"/>
<path d="M925.051 187.274V61.0374H959.72V187.274H925.051ZM925.051 49.7084V15.0281H959.72V49.7084H925.051Z" fill="url(#paint8_linear_200_2)"/>
<path d="M978.156 187.274V61.0374H1010.51V91.3248L1008.2 86.932C1010.98 76.2967 1015.52 69.1294 1021.84 65.4302C1028.31 61.5768 1035.94 59.6501 1044.72 59.6501H1052.12V89.7064H1041.25C1032.78 89.7064 1025.92 92.3267 1020.68 97.5673C1015.44 102.654 1012.82 109.898 1012.82 119.3V187.274H978.156Z" fill="url(#paint9_linear_200_2)"/>
<path d="M1105.68 190.048C1095.51 190.048 1086.8 187.89 1079.56 183.574C1072.47 179.105 1067.08 172.939 1063.38 165.078C1059.68 157.217 1057.83 148.046 1057.83 137.565V61.0374H1092.5V134.791C1092.5 139.569 1093.43 143.808 1095.28 147.507C1097.28 151.052 1100.05 153.826 1103.6 155.83C1107.14 157.834 1111.15 158.836 1115.62 158.836C1120.24 158.836 1124.24 157.834 1127.63 155.83C1131.18 153.826 1133.87 151.052 1135.72 147.507C1137.73 143.808 1138.73 139.569 1138.73 134.791V61.0374H1173.4V187.274H1141.04V162.304L1142.89 167.853C1139.96 175.405 1135.18 181.031 1128.56 184.73C1122.09 188.276 1114.46 190.048 1105.68 190.048Z" fill="url(#paint10_linear_200_2)"/>
<path d="M1191.8 187.274V61.0374H1224.16V91.3248L1221.85 86.932C1224.62 76.2967 1229.17 69.1294 1235.48 65.4302C1241.96 61.5768 1249.58 59.6501 1258.37 59.6501H1265.76V89.7064H1254.9C1246.42 89.7064 1239.57 92.3267 1234.33 97.5673C1229.09 102.654 1226.47 109.898 1226.47 119.3V187.274H1191.8Z" fill="url(#paint11_linear_200_2)"/>
<path d="M1335.96 238.138C1326.26 238.138 1317.24 236.52 1308.92 233.283C1300.6 230.046 1293.44 225.499 1287.43 219.642C1281.57 213.939 1277.34 207.157 1274.72 199.296L1306.84 187.967C1308.54 193.824 1312 198.448 1317.24 201.839C1322.48 205.23 1328.72 206.926 1335.96 206.926C1341.66 206.926 1346.6 205.847 1350.76 203.689C1354.92 201.685 1358.07 198.68 1360.23 194.672C1362.54 190.665 1363.7 185.964 1363.7 180.569V151.669L1370.4 159.992C1366.09 167.082 1360.54 172.4 1353.76 175.945C1346.98 179.336 1339.05 181.031 1329.95 181.031C1318.24 181.031 1307.77 178.411 1298.52 173.17C1289.28 167.776 1282.03 160.454 1276.8 151.206C1271.56 141.804 1268.94 131.169 1268.94 119.3C1268.94 107.432 1271.56 96.9507 1276.8 87.8568C1282.03 78.6087 1289.2 71.3644 1298.29 66.1238C1307.38 60.8832 1317.7 58.2629 1329.26 58.2629C1338.35 58.2629 1346.29 60.1125 1353.07 63.8118C1359.85 67.3569 1365.62 72.8286 1370.4 80.2271L1366.01 88.5504V61.0374H1398.37V180.569C1398.37 191.667 1395.67 201.531 1390.28 210.163C1384.89 218.948 1377.49 225.807 1368.09 230.74C1358.85 235.672 1348.14 238.138 1335.96 238.138ZM1334.81 149.588C1340.66 149.588 1345.75 148.355 1350.06 145.888C1354.38 143.422 1357.69 139.954 1360 135.484C1362.47 131.015 1363.7 125.774 1363.7 119.763C1363.7 113.751 1362.47 108.511 1360 104.041C1357.54 99.4169 1354.15 95.8718 1349.83 93.4056C1345.52 90.7853 1340.51 89.4752 1334.81 89.4752C1328.95 89.4752 1323.71 90.7853 1319.09 93.4056C1314.62 95.8718 1311.08 99.4169 1308.46 104.041C1305.99 108.511 1304.76 113.751 1304.76 119.763C1304.76 125.62 1305.99 130.783 1308.46 135.253C1311.08 139.723 1314.62 143.268 1319.09 145.888C1323.71 148.355 1328.95 149.588 1334.81 149.588Z" fill="url(#paint12_linear_200_2)"/>
<path d="M1416.96 187.274V61.0374H1451.63V187.274H1416.96ZM1416.96 49.7084V15.0281H1451.63V49.7084H1416.96Z" fill="url(#paint13_linear_200_2)"/>
<path d="M1509.12 190.048C1500.03 190.048 1492.17 188.584 1485.55 185.655C1478.92 182.727 1473.84 178.565 1470.29 173.17C1466.75 167.621 1464.98 161.071 1464.98 153.518C1464.98 146.428 1466.6 140.186 1469.83 134.791C1473.07 129.242 1478 124.618 1484.62 120.919C1491.4 117.219 1499.8 114.599 1509.82 113.058L1548.41 106.815V132.248L1516.06 138.028C1511.13 138.952 1507.35 140.571 1504.73 142.883C1502.11 145.041 1500.8 148.201 1500.8 152.362C1500.8 156.216 1502.27 159.221 1505.19 161.379C1508.12 163.537 1511.74 164.616 1516.06 164.616C1521.76 164.616 1526.77 163.383 1531.08 160.917C1535.39 158.45 1538.71 155.137 1541.02 150.975C1543.48 146.659 1544.72 141.958 1544.72 136.872V104.041C1544.72 99.2628 1542.79 95.2552 1538.94 92.0184C1535.24 88.7816 1530.16 87.1632 1523.68 87.1632C1517.52 87.1632 1512.05 88.8587 1507.27 92.2496C1502.65 95.6406 1499.26 100.11 1497.1 105.659L1469.37 92.4808C1471.84 85.3906 1475.76 79.3023 1481.16 74.2159C1486.55 69.1294 1493.02 65.199 1500.57 62.4246C1508.12 59.6501 1516.36 58.2629 1525.3 58.2629C1535.93 58.2629 1545.33 60.1896 1553.5 64.043C1561.67 67.8963 1567.98 73.2911 1572.45 80.2271C1577.07 87.009 1579.38 94.947 1579.38 104.041V187.274H1547.03V166.928L1554.89 165.541C1551.19 171.09 1547.1 175.714 1542.64 179.413C1538.17 182.958 1533.16 185.578 1527.61 187.274C1522.07 189.123 1515.9 190.048 1509.12 190.048ZM1543.33 39.3044C1539.02 39.3044 1535.39 38.6878 1532.47 37.4547C1529.54 36.2217 1527 34.8345 1524.84 33.2931C1522.68 31.7518 1520.53 30.3645 1518.37 29.1315C1516.36 27.8984 1514.05 27.2818 1511.43 27.2818C1508.81 27.2818 1506.81 28.2837 1505.43 30.2875C1504.19 32.1371 1503.58 34.8344 1503.58 38.3795H1477C1477 24.9698 1480 15.2593 1486.01 9.24809C1492.17 3.0827 1499.34 0 1507.51 0C1511.97 0 1515.67 0.61654 1518.6 1.84962C1521.68 2.92857 1524.38 4.31578 1526.69 6.01126C1529 7.5526 1531.16 8.93982 1533.16 10.1729C1535.16 11.2518 1537.32 11.7913 1539.63 11.7913C1542.71 11.7913 1544.79 10.8665 1545.87 9.01689C1546.95 7.01313 1547.49 4.31578 1547.49 0.92481H1574.07C1573.91 13.8721 1570.76 23.5055 1564.59 29.8251C1558.58 36.1446 1551.5 39.3044 1543.33 39.3044Z" fill="url(#paint14_linear_200_2)"/>
<path d="M1660.51 190.048C1648.03 190.048 1636.63 187.197 1626.31 181.494C1616.14 175.791 1607.97 168.007 1601.81 158.142C1595.8 148.123 1592.79 136.795 1592.79 124.156C1592.79 111.362 1595.8 100.033 1601.81 90.1688C1607.97 80.3042 1616.14 72.5204 1626.31 66.8174C1636.63 61.1144 1648.03 58.2629 1660.51 58.2629C1672.99 58.2629 1684.32 61.1144 1694.49 66.8174C1704.66 72.5204 1712.75 80.3042 1718.75 90.1688C1724.92 100.033 1728 111.362 1728 124.156C1728 136.795 1724.92 148.123 1718.75 158.142C1712.75 168.007 1704.66 175.791 1694.49 181.494C1684.32 187.197 1672.99 190.048 1660.51 190.048ZM1660.51 158.836C1666.83 158.836 1672.3 157.372 1676.92 154.443C1681.7 151.514 1685.4 147.43 1688.02 142.189C1690.79 136.949 1692.18 130.937 1692.18 124.156C1692.18 117.374 1690.79 111.439 1688.02 106.353C1685.4 101.112 1681.7 97.0278 1676.92 94.0992C1672.3 91.0165 1666.83 89.4752 1660.51 89.4752C1654.19 89.4752 1648.65 91.0165 1643.87 94.0992C1639.09 97.0278 1635.32 101.112 1632.55 106.353C1629.93 111.439 1628.62 117.374 1628.62 124.156C1628.62 130.937 1629.93 136.949 1632.55 142.189C1635.32 147.43 1639.09 151.514 1643.87 154.443C1648.65 157.372 1654.19 158.836 1660.51 158.836Z" fill="url(#paint15_linear_200_2)"/>
<defs>
<linearGradient id="paint0_linear_200_2" x1="1728" y1="119.069" x2="-2484.78" y2="119.069" gradientUnits="userSpaceOnUse">
<stop stop-color="white"/>
<stop offset="1" stop-color="#4796FF"/>
</linearGradient>
<linearGradient id="paint1_linear_200_2" x1="1728" y1="119.069" x2="-2484.78" y2="119.069" gradientUnits="userSpaceOnUse">
<stop stop-color="white"/>
<stop offset="1" stop-color="#4796FF"/>
</linearGradient>
<linearGradient id="paint2_linear_200_2" x1="1728" y1="119.069" x2="-2484.78" y2="119.069" gradientUnits="userSpaceOnUse">
<stop stop-color="white"/>
<stop offset="1" stop-color="#4796FF"/>
</linearGradient>
<linearGradient id="paint3_linear_200_2" x1="1728" y1="119.069" x2="-2484.78" y2="119.069" gradientUnits="userSpaceOnUse">
<stop stop-color="white"/>
<stop offset="1" stop-color="#4796FF"/>
</linearGradient>
<linearGradient id="paint4_linear_200_2" x1="1728" y1="119.069" x2="-2484.78" y2="119.069" gradientUnits="userSpaceOnUse">
<stop stop-color="white"/>
<stop offset="1" stop-color="#4796FF"/>
</linearGradient>
<linearGradient id="paint5_linear_200_2" x1="1728" y1="119.069" x2="-2484.78" y2="119.069" gradientUnits="userSpaceOnUse">
<stop stop-color="white"/>
<stop offset="1" stop-color="#4796FF"/>
</linearGradient>
<linearGradient id="paint6_linear_200_2" x1="1728" y1="119.069" x2="-2484.78" y2="119.069" gradientUnits="userSpaceOnUse">
<stop stop-color="white"/>
<stop offset="1" stop-color="#4796FF"/>
</linearGradient>
<linearGradient id="paint7_linear_200_2" x1="1728" y1="119.069" x2="-2484.78" y2="119.069" gradientUnits="userSpaceOnUse">
<stop stop-color="white"/>
<stop offset="1" stop-color="#4796FF"/>
</linearGradient>
<linearGradient id="paint8_linear_200_2" x1="1728" y1="119.069" x2="-2484.78" y2="119.069" gradientUnits="userSpaceOnUse">
<stop stop-color="white"/>
<stop offset="1" stop-color="#4796FF"/>
</linearGradient>
<linearGradient id="paint9_linear_200_2" x1="1728" y1="119.069" x2="-2484.78" y2="119.069" gradientUnits="userSpaceOnUse">
<stop stop-color="white"/>
<stop offset="1" stop-color="#4796FF"/>
</linearGradient>
<linearGradient id="paint10_linear_200_2" x1="1728" y1="119.069" x2="-2484.78" y2="119.069" gradientUnits="userSpaceOnUse">
<stop stop-color="white"/>
<stop offset="1" stop-color="#4796FF"/>
</linearGradient>
<linearGradient id="paint11_linear_200_2" x1="1728" y1="119.069" x2="-2484.78" y2="119.069" gradientUnits="userSpaceOnUse">
<stop stop-color="white"/>
<stop offset="1" stop-color="#4796FF"/>
</linearGradient>
<linearGradient id="paint12_linear_200_2" x1="1728" y1="119.069" x2="-2484.78" y2="119.069" gradientUnits="userSpaceOnUse">
<stop stop-color="white"/>
<stop offset="1" stop-color="#4796FF"/>
</linearGradient>
<linearGradient id="paint13_linear_200_2" x1="1728" y1="119.069" x2="-2484.78" y2="119.069" gradientUnits="userSpaceOnUse">
<stop stop-color="white"/>
<stop offset="1" stop-color="#4796FF"/>
</linearGradient>
<linearGradient id="paint14_linear_200_2" x1="1728" y1="119.069" x2="-2484.78" y2="119.069" gradientUnits="userSpaceOnUse">
<stop stop-color="white"/>
<stop offset="1" stop-color="#4796FF"/>
</linearGradient>
<linearGradient id="paint15_linear_200_2" x1="1728" y1="119.069" x2="-2484.78" y2="119.069" gradientUnits="userSpaceOnUse">
<stop stop-color="white"/>
<stop offset="1" stop-color="#4796FF"/>
</linearGradient>
</defs>
</svg>
