<svg width="561" height="561" viewBox="0 0 561 561" fill="none" xmlns="http://www.w3.org/2000/svg">
<path fill-rule="evenodd" clip-rule="evenodd" d="M269.418 44C270.254 44 321.758 84.6988 496 224.66V361.397C496 436.482 495.498 498 494.662 498C493.993 498 443.159 457.436 269.418 318.012L157.381 408.006C95.6773 457.57 44.8427 498 44.0066 498C43.3378 498 42.6689 436.482 42 224.66L154.873 134.397C216.911 84.6988 268.415 44 269.418 44ZM283.632 134.666L397.341 226.003V178.991L283.632 87.6538V134.666ZM142.331 178.991L143.168 224.66L255.204 134.666L254.201 89.1314L142.331 178.991ZM212.564 201.825L213.4 248.837L255.204 215.257L254.201 168.38L212.564 201.825ZM283.632 215.123L325.436 248.703V201.691L283.632 168.111V215.123ZM425.768 248.703L467.573 282.283V235.271L425.768 201.691V248.703ZM72.0994 235.405L72.9355 280.94L113.068 248.703L112.232 203.169L72.0994 235.405ZM142.331 258.24L143 305.251L184.972 271.672L183.969 224.66L142.331 258.24ZM355.369 273.015L397.173 306.595V259.583L355.369 226.003V273.015ZM212.564 282.417L213.232 329.429L255.204 295.849L254.201 248.972L212.564 282.417ZM283.464 294.372L325.436 327.951V282.283L283.464 248.703V294.372ZM72.0994 314.654L72.7683 361.531L113.068 329.295L112.065 282.417L72.0994 314.654ZM425.601 329.429L467.573 363.009V315.997L425.601 282.417V329.429ZM72.0994 395.246L72.7683 442.257L184.972 352.263L183.969 305.386L72.0994 395.246ZM355.536 352.263L467.573 442.257V396.589L355.536 306.595V352.263Z" fill="#2463F2"/>
</svg>
