<svg width="425" height="458" viewBox="0 0 425 458" fill="none" xmlns="http://www.w3.org/2000/svg">
<path d="M221.598 327.373L189.664 309.375L86.3689 249.204V289.61L189.664 348.871L221.598 365.959M221.598 327.373V365.959M221.598 327.373L350.978 251.667V289.61L221.598 365.959M221.598 404.016L368.039 313.865V358.099L221.598 450M221.598 404.016V450M221.598 404.016L86.3689 325.41V372.365L221.598 450M221.598 450L417 327.373V113.475M221.598 450L59.6611 356.801M221.598 259.974L180.139 238.114V273.98L221.598 298.561M221.598 259.974V298.561M221.598 259.974L265.916 238.114V273.98L221.598 298.561M417 113.475L221.533 8L8 113.858V327.373L59.6611 356.801M417 113.475C286.285 188.821 227.303 224.643 142.124 192.522M142.124 192.522C114.09 180.085 92.0848 168.736 62.1304 149.879M142.124 192.522C110.811 178.772 90.1104 167.705 62.1304 149.879M142.124 192.522C116.963 183.034 90.7668 168.955 62.1202 150.737M62.1304 149.879L62.1202 150.737M62.1202 150.737L59.6611 356.801M324.373 206.315L417 151.918L417 183.568L324.373 238.114L324.373 206.315ZM153.756 228.578L86.3689 188.821V220.532L153.756 260.618V228.578ZM220.625 52.2813L85.9004 122.158C85.9004 122.158 202.499 201.191 270.311 156.796C338.123 112.401 273.726 81.684 262.749 75.8116C257.383 72.9407 220.625 52.2813 220.625 52.2813Z" stroke="url(#paint0_linear_41_271)" stroke-width="16" stroke-linejoin="round"/>
<defs>
<linearGradient id="paint0_linear_41_271" x1="161.329" y1="69.4999" x2="238.053" y2="179.4" gradientUnits="userSpaceOnUse">
<stop stop-color="#2463F2"/>
<stop offset="1" stop-color="#15398C"/>
</linearGradient>
</defs>
</svg>
